<svg width="16" height="17" viewBox="0 0 16 17" fill="none" xmlns="http://www.w3.org/2000/svg">
<path fill-rule="evenodd" clip-rule="evenodd" d="M14.6975 0.723687C14.3996 0.425438 13.9165 0.425438 13.6185 0.723687L12.9529 1.38992C12.1021 0.983083 11.0522 1.13236 10.3475 1.83776L2.25496 9.93818L6.57099 14.2584L14.6635 6.15799C15.3683 5.45259 15.5174 4.40167 15.1109 3.55003L15.7765 2.8838C16.0745 2.58555 16.0745 2.10199 15.7765 1.80374L14.6975 0.723687ZM11.4412 7.22339L6.57099 12.0983L4.41297 9.93818L9.28314 5.06328L11.4412 7.22339ZM12.8285 5.83474L13.5845 5.07793C13.8825 4.77968 13.8825 4.29612 13.5845 3.99787L12.5055 2.91782C12.2076 2.61957 11.7245 2.61957 11.4265 2.91782L10.6704 3.67463L12.8285 5.83474Z" fill="black"/>
<path d="M0 16.5L1.61881 10.5594L5.93454 14.8799L0 16.5Z" fill="black"/>
</svg>
