<svg width="23" height="23" viewBox="0 0 23 23" fill="none" xmlns="http://www.w3.org/2000/svg">
<path fill-rule="evenodd" clip-rule="evenodd" d="M20.7948 8.13608L13.5685 0.90979C12.3555 -0.303263 10.3887 -0.303264 9.17569 0.90979L2.15752 7.92796V22.9565H9.40537V16.7441C9.40537 15.6004 10.3325 14.6733 11.4762 14.6733C12.6199 14.6733 13.547 15.6004 13.547 16.7441V22.9565H20.7948V8.13608ZM10.64 2.37408L4.22834 8.78571V20.8857H7.33455V16.7441C7.33455 14.4567 9.18882 12.6025 11.4762 12.6025C13.7635 12.6025 15.6178 14.4567 15.6178 16.7441V20.8857H18.724V8.99384L12.1043 2.37408C11.6999 1.96972 11.0443 1.96972 10.64 2.37408Z" fill="#033F29"/>
</svg>
