<svg width="23" height="23" viewBox="0 0 23 23" fill="none" xmlns="http://www.w3.org/2000/svg">
<path fill-rule="evenodd" clip-rule="evenodd" d="M16.5 5C16.5 7.82279 14.3403 10 11.5 10C8.65968 10 6.5 7.82279 6.5 5C6.5 2.17721 8.65968 0 11.5 0C14.3403 0 16.5 2.17721 16.5 5ZM14.5 5C14.5 8 11.5 8 11.5 8C11.5 8 8.5 8 8.5 5C8.5 2 11.5 2 11.5 2C11.5 2 14.5 2 14.5 5Z" fill="#033F29"/>
<path d="M18.5 15C18.5 14 17.5 13 16.5 13H11.5H6.5C5.5 13 4.5 14 4.5 15V23H2.5V15C2.5 12.8829 4.36976 11 6.5 11H16.5C18.6302 11 20.5 12.8829 20.5 15V23H18.5V15Z" fill="#033F29"/>
</svg>
