<svg width="23" height="23" viewBox="0 0 23 23" fill="none" xmlns="http://www.w3.org/2000/svg">
<path fill-rule="evenodd" clip-rule="evenodd" d="M1.41538 3.52406C1.41538 1.6619 2.92496 0.152317 4.78712 0.152317H13.7784C18.1235 0.152317 21.6458 3.67467 21.6458 8.01971V19.2588C21.6458 21.121 20.1362 22.6306 18.2741 22.6306H4.78712C2.92496 22.6306 1.41538 21.121 1.41538 19.2588V3.52406ZM12.6545 2.40014H4.78712C4.1664 2.40014 3.66321 2.90334 3.66321 3.52406V19.2588C3.66321 19.8796 4.1664 20.3828 4.78712 20.3828H18.2741C18.8948 20.3828 19.398 19.8796 19.398 19.2588V8.01971H12.6545V2.40014ZM18.9304 5.77188C18.2081 4.11867 16.7133 2.88017 14.9023 2.51255V5.77188H18.9304Z" fill="#616161"/>
</svg>
