<svg width="23" height="23" viewBox="0 0 23 23" fill="none" xmlns="http://www.w3.org/2000/svg">
<path fill-rule="evenodd" clip-rule="evenodd" d="M16.9105 15.342C19.6258 11.8547 19.3805 6.80941 16.1747 3.60356C12.7033 0.132145 7.07498 0.132145 3.60356 3.60356C0.132145 7.07498 0.132145 12.7033 3.60356 16.1747C6.80941 19.3805 11.8547 19.6258 15.342 16.9105C15.3571 16.9275 15.3727 16.9441 15.389 16.9604L20.1032 21.6746C20.5371 22.1085 21.2406 22.1085 21.6746 21.6746C22.1085 21.2406 22.1085 20.5371 21.6746 20.1032L16.9604 15.389C16.9441 15.3727 16.9275 15.3571 16.9105 15.342ZM14.6033 5.17496C17.2069 7.77852 17.2069 11.9997 14.6033 14.6033C11.9997 17.2069 7.77852 17.2069 5.17496 14.6033C2.57139 11.9997 2.57139 7.77852 5.17496 5.17496C7.77852 2.57139 11.9997 2.57139 14.6033 5.17496Z" fill="#616161"/>
</svg>
